<svg xmlns="http://www.w3.org/2000/svg" viewBox="0 0 200 60" fill="none">
  <path d="M0 60 L30 25 L45 35 L70 10 L95 35 L110 25 L130 45 L150 20 L175 40 L200 15 L200 60 Z" fill="#2D5016" opacity="0.3"/>
  <path d="M0 60 L20 40 L40 50 L60 30 L80 45 L100 25 L120 40 L140 30 L160 45 L180 35 L200 50 L200 60 Z" fill="#2D5016" opacity="0.5"/>
  <path d="M0 60 L25 50 L50 55 L75 45 L100 55 L125 48 L150 55 L175 50 L200 55 L200 60 Z" fill="#2D5016" opacity="0.7"/>
  <!-- Snow caps -->
  <path d="M68 12 L70 10 L72 12 L70 14 Z" fill="white" opacity="0.8"/>
  <path d="M148 22 L150 20 L152 22 L150 24 Z" fill="white" opacity="0.8"/>
</svg>
